<svg xmlns="http://www.w3.org/2000/svg" xmlns:xlink="http://www.w3.org/1999/xlink" viewBox="0 0 1100 740"><defs><style>.cls-1{isolation:isolate;}.cls-2{fill:#141414;}.cls-3{fill:#fff200;}.cls-4{fill:#b7a900;}.cls-5{fill:#ddc700;}.cls-10,.cls-11,.cls-6,.cls-7,.cls-8,.cls-9{mix-blend-mode:multiply;}.cls-6{fill:url(#linear-gradient);}.cls-7{fill:url(#linear-gradient-2);}.cls-8{fill:url(#linear-gradient-3);}.cls-9{fill:url(#linear-gradient-4);}.cls-10{fill:url(#linear-gradient-5);}.cls-11{fill:url(#linear-gradient-6);}</style><linearGradient id="linear-gradient" x1="532.06" y1="282.17" x2="717.76" y2="275.19" gradientUnits="userSpaceOnUse"><stop offset="0" stop-color="#fff"/><stop offset="1"/></linearGradient><linearGradient id="linear-gradient-2" x1="533.02" y1="307.85" x2="718.72" y2="300.88" xlink:href="#linear-gradient"/><linearGradient id="linear-gradient-3" x1="517.89" y1="334.19" x2="568.25" y2="329.24" xlink:href="#linear-gradient"/><linearGradient id="linear-gradient-4" x1="534.94" y1="345.82" x2="541.91" y2="345.14" xlink:href="#linear-gradient"/><linearGradient id="linear-gradient-5" x1="588.52" y1="400.27" x2="590.23" y2="372.52" xlink:href="#linear-gradient"/><linearGradient id="linear-gradient-6" x1="486.69" y1="449.28" x2="481.98" y2="406.27" xlink:href="#linear-gradient"/></defs><g class="cls-1"><g id="Layer_1" data-name="Layer 1"><rect class="cls-2" width="1100" height="740"/><path class="cls-3" d="M587.15,274.45v12.86h46.46V431.55a83.61,83.61,0,0,1-167.22,0V287.31h111V274.45H453.53v157.1a102.1,102.1,0,0,0,.61,11,96.48,96.48,0,0,0,192.33-11V274.45Z"/><polygon class="cls-3" points="577.36 300.16 577.36 313.02 492.13 313.02 492.13 369.08 479.26 369.08 479.26 300.16 577.36 300.16"/><path class="cls-3" d="M620.76,300.16v131.4a70.75,70.75,0,0,1-140.15,13.77,64.53,64.53,0,0,1-1.14-8.27V437c-.14-1.79-.21-3.58-.21-5.4h12.87c0,1.75.07,3.49.24,5.21,0,0,0,0,0,0a56.34,56.34,0,0,0,1.16,7.52A57.38,57.38,0,0,0,502,463.91a58,58,0,0,0,25.47,21,57.87,57.87,0,0,0,80.41-53.33V313H587.17V300.16Z"/><path class="cls-3" d="M594.11,388.36v43.19a44.07,44.07,0,0,1-68.74,36.56,44,44,0,0,1-19.48-36.56V326.81h26.74a16.48,16.48,0,0,0-1.46,6.72,16.7,16.7,0,0,0,1.19,6.14H518.78v91.88A31,31,0,0,0,524.12,449a31.44,31.44,0,0,0,13.75,11.32A30.82,30.82,0,0,0,550,462.8a31.31,31.31,0,0,0,17.47-5.34A31.69,31.69,0,0,0,578.8,443.7a31.05,31.05,0,0,0,2.45-12.15V388.36Z"/><path class="cls-4" d="M532.36,339.67Z"/><path class="cls-5" d="M500.67,415.49a16.38,16.38,0,0,0-15.09-10,17,17,0,0,0-6.38,1.28,16.57,16.57,0,0,0-7.2,5.95,18.89,18.89,0,0,0-1.36,2.42,16.55,16.55,0,0,0-1.46,6.72A16.13,16.13,0,0,0,470.4,428a1,1,0,0,0,.09.27,16.69,16.69,0,0,0,5.92,7.21c.49.31,1,.6,1.48.87a11.22,11.22,0,0,0,1.58.73,16.21,16.21,0,0,0,10.84.48,2.2,2.2,0,0,1,.49-.12,2.52,2.52,0,0,1,.41-.17A5.56,5.56,0,0,0,492,437a2.32,2.32,0,0,0,.42-.19,16.29,16.29,0,0,0,8.29-21.28Zm-18.34,5a3.82,3.82,0,0,1,1.29-1.56,3.69,3.69,0,0,1,2-.58,3.47,3.47,0,0,1,1.36.27,3.44,3.44,0,0,1,2.16,3.22,3.86,3.86,0,0,1-.26,1.39,4.06,4.06,0,0,1-1.29,1.57,3.48,3.48,0,0,1-2,.56,3.33,3.33,0,0,1-1.38-.26,3.38,3.38,0,0,1-1.53-1.29,3.31,3.31,0,0,1-.6-2A3.6,3.6,0,0,1,482.33,420.49Z"/><path class="cls-5" d="M601.24,368.49a16.35,16.35,0,0,0-15.09-10A16.37,16.37,0,0,0,577,388.46a15.32,15.32,0,0,0,4.27,2.06,15.64,15.64,0,0,0,4.9.75c.56,0,1.12,0,1.65-.07.1,0,.22,0,.34-.05a15.53,15.53,0,0,0,4.39-1.16c.54-.24,1.07-.49,1.58-.78a16.86,16.86,0,0,0,3-2.13l.07-.08,0,0a15.9,15.9,0,0,0,2.53-2.89,16.51,16.51,0,0,0,1.5-15.58Zm-18.34,5a3.6,3.6,0,0,1,1.26-1.55,3.74,3.74,0,0,1,2-.61,3.17,3.17,0,0,1,1.36.32,3.26,3.26,0,0,1,1.55,1.26,3.59,3.59,0,0,1,.61,2,2.83,2.83,0,0,1-.27,1.33,3.49,3.49,0,0,1-3.25,2.18,3.57,3.57,0,0,1-1.38-.26,3.45,3.45,0,0,1-1.53-1.29,3.4,3.4,0,0,1-.61-2A3.66,3.66,0,0,1,582.9,373.51Z"/><path class="cls-3" d="M600.09,260.2v46.86H587.22V260.2a34.31,34.31,0,0,0-6.17-19.55,36.54,36.54,0,0,0-30.12-15.83,36,36,0,0,0-20.29,6.2,36.16,36.16,0,0,0-16,30.1v20.21H501.77V261.12a49.28,49.28,0,0,1,94.43-19.58A46.8,46.8,0,0,1,600.09,260.2Z"/><path class="cls-5" d="M563.18,383.13a12,12,0,1,1-12-12A12,12,0,0,1,563.18,383.13Z"/><path class="cls-5" d="M557.4,424.94a6.68,6.68,0,0,1-6.68,6.67h0a6.67,6.67,0,0,1-6.67-6.67V392.47a6.67,6.67,0,0,1,6.67-6.67h0a6.68,6.68,0,0,1,6.68,6.67Z"/><rect class="cls-6" x="555.61" y="274.45" width="21.74" height="12.86"/><rect class="cls-7" x="555.61" y="300.16" width="21.74" height="12.86"/><path class="cls-3" d="M562.64,327.17a16.38,16.38,0,0,0-15.09-10,17.14,17.14,0,0,0-6.38,1.29,16.53,16.53,0,0,0-7.18,5.92.16.16,0,0,0,0,.07c-.26.37-.48.76-.7,1.15l-.1.21c-.18.33-.34.68-.49,1h0a16.48,16.48,0,0,0-1.46,6.72,16.7,16.7,0,0,0,1.19,6.14h0l.1.31a16.16,16.16,0,0,0,3.59,5.22,9.56,9.56,0,0,0,1,.9,14.46,14.46,0,0,0,1.33,1,16.63,16.63,0,0,0,9.17,2.79,16.15,16.15,0,0,0,6.4-1.29,16.37,16.37,0,0,0,10-15.11A16,16,0,0,0,562.64,327.17Zm-11.84,7.75a3.57,3.57,0,0,1-1.28,1.54,3.42,3.42,0,0,1-2,.62,3.21,3.21,0,0,1-1.36-.3,3.36,3.36,0,0,1-1.58-1.29,3.52,3.52,0,0,1-.56-2,3.24,3.24,0,0,1,.27-1.36,3.59,3.59,0,0,1,3.23-2.16,3.31,3.31,0,0,1,1.38.29,3.51,3.51,0,0,1,1.55,1.29,3.46,3.46,0,0,1,.61,1.94A3.67,3.67,0,0,1,550.8,334.92Z"/><path class="cls-5" d="M562.64,327.17a16.38,16.38,0,0,0-15.09-10,17.14,17.14,0,0,0-6.38,1.29,16.53,16.53,0,0,0-7.18,5.92.16.16,0,0,0,0,.07c-.26.37-.48.76-.7,1.15l-.1.21c-.18.33-.34.68-.49,1h0a16.48,16.48,0,0,0-1.46,6.72,16.7,16.7,0,0,0,1.19,6.14h0l.1.31a16.16,16.16,0,0,0,3.59,5.22,9.56,9.56,0,0,0,1,.9,14.46,14.46,0,0,0,1.33,1,16.63,16.63,0,0,0,9.17,2.79,16.15,16.15,0,0,0,6.4-1.29,16.37,16.37,0,0,0,10-15.11A16,16,0,0,0,562.64,327.17Zm-11.84,7.75a3.57,3.57,0,0,1-1.28,1.54,3.42,3.42,0,0,1-2,.62,3.21,3.21,0,0,1-1.36-.3,3.36,3.36,0,0,1-1.58-1.29,3.52,3.52,0,0,1-.56-2,3.24,3.24,0,0,1,.27-1.36,3.59,3.59,0,0,1,3.23-2.16,3.31,3.31,0,0,1,1.38.29,3.51,3.51,0,0,1,1.55,1.29,3.46,3.46,0,0,1,.61,1.94A3.67,3.67,0,0,1,550.8,334.92Z"/><path class="cls-8" d="M533.14,325.79c-.18.33-.34.68-.49,1h0a16.48,16.48,0,0,0-1.46,6.72,16.7,16.7,0,0,0,1.19,6.14H527c-.62-3.81-1-8.82.47-12.86h5.19C532.8,326.46,533,326.12,533.14,325.79Z"/><path class="cls-9" d="M537.19,346.12l-.15,0a10.57,10.57,0,0,1-1-.9A10.88,10.88,0,0,0,537.19,346.12Z"/><path class="cls-10" d="M597.19,387l-.07.08a16.86,16.86,0,0,1-3,2.13v6.41c-3.08,1.26-7.94,2.67-12.86,1.74v-6.62a14.84,14.84,0,0,0,6.55.46c.1,0,.22,0,.34-.05a19.36,19.36,0,0,0,6-2.13A32.26,32.26,0,0,0,597.19,387Z"/><path class="cls-11" d="M493.53,444.32c-3.57,1.55-8.23,2.62-12.92,1a64.53,64.53,0,0,1-1.14-8.27,14.05,14.05,0,0,1-1.58-.73c.47.21,1,.42,1.58.63a18.22,18.22,0,0,0,10.83.59l.49-.14.43-.16a8.55,8.55,0,0,0,1.15-.45A56.34,56.34,0,0,0,493.53,444.32Z"/></g></g></svg>